<?xml version="1.0" encoding="UTF-8"?>
<svg xmlns="http://www.w3.org/2000/svg" width="143" height="25" viewBox="0 0 143 25">
    <defs>
        <clipPath id="7f5ya">
            <path d="M55.87 1.078h18.764V24.82H55.869z"/>
        </clipPath>
        <clipPath id="7f5yb">
            <path d="M.575 24.82h141.899V.58H.575z"/>
        </clipPath>
    </defs>
    <g>
        <g>
            <g>
                <g>
                    <path fill="#383838"
                          d="M42.783 9.715c-.656-.564-.984-1.298-.984-2.205 0-.906.328-1.63.984-2.172.657-.541 1.575-.812 2.756-.812 1.181 0 2.094.27 2.74.812.644.542.967 1.266.967 2.172 0 .907-.323 1.641-.968 2.205-.645.564-1.558.845-2.739.845zm-.492 10.478c-.787-.63-1.18-1.509-1.18-2.636 0-1.172.404-2.106 1.213-2.802.809-.697 1.903-1.044 3.28-1.044 1.379 0 2.45.347 3.216 1.044.765.696 1.147 1.63 1.147 2.802 0 1.083-.41 1.95-1.23 2.603-.82.652-1.886.978-3.198.978zm6.89 4.111c1.093-.32 2.038-.784 2.837-1.392a6.369 6.369 0 0 0 1.87-2.272c.448-.906.672-1.944.672-3.116 0-1.393-.366-2.598-1.098-3.615-.734-1.016-1.723-1.745-2.97-2.188v-.1c.985-.464 1.75-1.071 2.297-1.823.546-.751.82-1.658.82-2.72 0-.95-.192-1.795-.574-2.536a5.376 5.376 0 0 0-1.608-1.873c-.689-.508-1.53-.895-2.525-1.16-.996-.266-2.095-.399-3.297-.399-1.226 0-2.335.133-3.33.398-.995.266-1.854.659-2.575 1.177a5.446 5.446 0 0 0-1.673 1.907c-.394.752-.59 1.603-.59 2.553 0 1.106.272 2.018.82 2.736.546.718 1.322 1.31 2.329 1.774v.1c-1.247.486-2.243 1.248-2.986 2.287-.743 1.04-1.115 2.266-1.115 3.68 0 1.15.24 2.162.722 3.035a6.694 6.694 0 0 0 1.952 2.205c.82.596 1.787 1.05 2.903 1.359 1.115.31 2.307.464 3.575.464z"/>
                </g>
                <g>
                    <g/>
                    <g clip-path="url(#7f5ya)">
                        <path fill="#383838"
                              d="M63.136 20.392c-.602-.386-1.094-.928-1.477-1.624-.382-.696-.667-1.542-.852-2.536a17.899 17.899 0 0 1-.28-3.283c0-1.216.094-2.315.28-3.3.185-.983.47-1.823.852-2.52.383-.696.875-1.237 1.477-1.624.6-.386 1.317-.58 2.148-.58.831 0 1.542.194 2.133.58.59.387 1.077.928 1.46 1.625.382.696.66 1.542.836 2.537.175.994.263 2.088.263 3.282 0 1.216-.088 2.32-.263 3.316-.175.995-.454 1.84-.836 2.536-.383.696-.87 1.233-1.46 1.609-.59.376-1.302.563-2.133.563zm6.052 3.582a8.388 8.388 0 0 0 2.953-2.387c.808-1.028 1.426-2.272 1.853-3.73.426-1.46.64-3.096.64-4.908 0-1.812-.214-3.454-.64-4.924-.427-1.47-1.045-2.719-1.853-3.747a8.217 8.217 0 0 0-2.953-2.37c-1.16-.553-2.46-.83-3.904-.83-1.421 0-2.712.277-3.87.83a8.361 8.361 0 0 0-2.97 2.37c-.82 1.028-1.454 2.277-1.902 3.747-.449 1.47-.673 3.112-.673 4.924 0 1.812.219 3.448.657 4.907.437 1.46 1.066 2.703 1.886 3.73a8.582 8.582 0 0 0 2.952 2.388c1.148.563 2.444.845 3.888.845z"/>
                    </g>
                </g>
                <g>
                    <path fill="#383838"
                          d="M87.002 4.759h4.986c1.181 0 2.1.299 2.756.896.656.596.984 1.458.984 2.586 0 1.083-.323 1.945-.968 2.586-.645.642-1.59.962-2.837.962h-4.92zm-4.92 19.53h4.92v-8.588h5.773c1.225 0 2.324-.182 3.297-.547.973-.365 1.793-.873 2.46-1.525a6.64 6.64 0 0 0 1.542-2.354c.361-.917.542-1.94.542-3.067 0-1.105-.186-2.111-.558-3.018a7.581 7.581 0 0 0-1.541-2.387c-.7-.707-1.554-1.254-2.56-1.641s-2.197-.58-3.575-.58h-10.3z"/>
                </g>
                <g/>
                <g clip-path="url(#7f5yb)">
                    <path fill="#383838" d="M102.19 7.28h4.462v17.012h-4.462zm0-6.699h4.462v4.046h-4.462z"/>
                </g>
                <g clip-path="url(#7f5yb)">
                    <path fill="#383838"
                          d="M113.475 9.6h.1c.568-.93 1.251-1.626 2.05-2.09.798-.464 1.776-.696 2.935-.696.875 0 1.668.16 2.378.48.711.321 1.318.763 1.822 1.327a6.189 6.189 0 0 1 1.18 2.006c.285.774.427 1.625.427 2.553v11.108h-4.461V13.843c0-.928-.252-1.68-.755-2.255-.503-.574-1.225-.862-2.165-.862-.984 0-1.8.36-2.444 1.078-.646.719-.968 1.664-.968 2.835v9.65h-4.461V7.277h4.363z"/>
                </g>
                <g clip-path="url(#7f5yb)">
                    <path fill="#383838"
                          d="M136.749 11.306c.645.674 1 1.552 1.066 2.634h-7.48c.198-1.127.602-2.015 1.214-2.667.612-.651 1.51-.977 2.69-.977zm.773 13.032c.875-.298 1.635-.702 2.28-1.21a6.519 6.519 0 0 0 1.575-1.774 6.745 6.745 0 0 0 .836-2.139h-4.396a3.213 3.213 0 0 1-1.148 1.525c-.525.376-1.225.563-2.1.563-1.27 0-2.26-.375-2.97-1.127-.71-.75-1.153-1.79-1.328-3.116h12.205c0-1.526-.18-2.913-.542-4.162-.36-1.248-.89-2.326-1.59-3.232a7.194 7.194 0 0 0-2.593-2.106c-1.028-.497-2.22-.746-3.576-.746-1.225 0-2.346.232-3.363.696a8.102 8.102 0 0 0-2.625 1.89c-.733.796-1.302 1.741-1.706 2.835-.405 1.095-.607 2.272-.607 3.532 0 1.26.192 2.442.574 3.548.383 1.105.946 2.06 1.69 2.868.743.807 1.657 1.442 2.74 1.906 1.082.464 2.324.696 3.724.696z"/>
                </g>
                <g clip-path="url(#7f5yb)">
                    <path fill="#383838"
                          d="M.575.581V24.21h4.289v-4.834h4.521v4.834h4.11v-8.978H4.864v-3.18h11.783l.001 12.158h4.109V7.907H4.864v-3.18h19.045V24.21h4.11V.581z"/>
                </g>
            </g>
        </g>
    </g>
</svg>
