<?xml version="1.0" encoding="UTF-8"?>
<svg width="394px" height="90px" viewBox="0 0 394 90" version="1.1" xmlns="http://www.w3.org/2000/svg" xmlns:xlink="http://www.w3.org/1999/xlink">
    <!-- Generator: Sketch 51.3 (57544) - http://www.bohemiancoding.com/sketch -->
    <title>80 PINE - TYPE</title>
    <desc>Created with Sketch.</desc>
    <defs>
        <polygon id="path-1" points="0 0.204812329 67.0868205 0.204812329 67.0868205 87.1384836 0 87.1384836"></polygon>
        <polygon id="path-3" points="0.948145205 0.750438356 69.7416521 0.750438356 69.7416521 87.8044041 0.948145205 87.8044041"></polygon>
        <polygon id="path-5" points="0 90.2496863 393.386767 90.2496863 393.386767 1.2467 0 1.2467"></polygon>
    </defs>
    <g id="Symbols-&amp;-Elements" stroke="none" stroke-width="1" fill="none" fill-rule="evenodd">
        <g id="80-PINE---TYPE_Blue-Copy" transform="translate(-1.000000, -1.000000)">
            <g id="80-PINE---TYPE" transform="translate(1.000000, 0.000000)">
                <g id="Group-3" transform="translate(0.000000, 2.989412)">
                    <mask id="mask-2" fill="white">
                        <use xlink:href="#path-1"></use>
                    </mask>
                    <g id="Clip-2"></g>
                    <path d="M33.9690534,87.1384836 C29.2619849,87.1384836 24.837889,86.5700452 20.6980123,85.4344151 C16.5581356,84.2975384 12.9667521,82.6333603 9.92261507,80.4418808 C6.87972466,78.2504014 4.46261507,75.5528123 2.67751918,72.345374 C0.891176712,69.1391822 -0.000124657534,65.4256342 -0.000124657534,61.2047301 C-0.000124657534,56.0102507 1.37858767,51.506374 4.13975205,47.6893603 C6.89717671,43.8760863 10.5932726,41.0750315 15.2193137,39.288689 L15.2193137,38.9234425 C11.484574,37.2181274 8.60249178,35.0478397 6.5743137,32.4100863 C4.54488904,29.7723329 3.53017671,26.4252781 3.53017671,22.3651822 C3.53017671,18.8760178 4.26066986,15.7483603 5.72290274,12.989689 C7.18388904,10.2310178 9.25445068,7.89618219 11.9320945,5.98642877 C14.6097384,4.08290822 17.7959849,2.64062055 21.4895877,1.66579863 C25.1819438,0.692223288 29.3006288,0.204812329 33.8481356,0.204812329 C38.3108753,0.204812329 42.3896699,0.692223288 46.0845192,1.66579863 C49.7768753,2.64062055 52.9020397,4.06046986 55.4587658,5.92783973 C58.0154918,7.79645616 60.0037795,10.0864151 61.4248753,12.8064425 C62.8447247,15.5264699 63.5565192,18.631689 63.5565192,22.1208534 C63.5565192,26.0164014 62.5405603,29.3460041 60.5123822,32.1046753 C58.4829575,34.8645932 55.6420123,37.095963 51.9895466,38.8012781 L51.9895466,39.1665247 C56.6168342,40.7920589 60.2879986,43.4697027 63.0092726,47.2031959 C65.7280534,50.936689 67.0868205,55.3595384 67.0868205,60.4729904 C67.0868205,64.7774151 66.2541082,68.5919356 64.5911767,71.9190452 C62.9257521,75.2486479 60.6133548,78.0272644 57.6514918,80.2586342 C54.685889,82.4912507 51.1792726,84.1978123 47.1191767,85.3720863 C43.0590808,86.5488534 38.6748753,87.1384836 33.9690534,87.1384836 M33.6050534,73.7452781 C38.4754233,73.7452781 42.4320534,72.5485658 45.4761904,70.1538945 C48.5178342,67.7604699 50.0423959,64.5729767 50.0423959,60.5964014 C50.0423959,56.2944699 48.6200534,52.8638945 45.7816014,50.3071685 C42.938163,47.7504425 38.9628342,46.4727027 33.8481356,46.4727027 C28.7346836,46.4727027 24.6733411,47.7504425 21.6728342,50.3071685 C18.6698342,52.8638945 17.1664644,56.2944699 17.1664644,60.5964014 C17.1664644,64.7362781 18.6286973,67.9624151 21.5506699,70.2760589 C24.4713959,72.5884562 28.4903548,73.7452781 33.6050534,73.7452781 M33.6050534,34.9057301 C37.9880123,34.9057301 41.3762041,33.8710726 43.7708753,31.7992644 C46.1630534,29.7311959 47.3622589,27.0323603 47.3622589,23.7040041 C47.3622589,20.3768945 46.1630534,17.7191959 43.7708753,15.7296616 C41.3762041,13.7401274 37.9880123,12.7466068 33.6050534,12.7466068 C29.2208479,12.7466068 25.812711,13.7401274 23.3769027,15.7296616 C20.9423411,17.7191959 19.724437,20.3768945 19.724437,23.7040041 C19.724437,27.0323603 20.9423411,29.7311959 23.3769027,31.7992644 C25.812711,33.8710726 29.2208479,34.9057301 33.6050534,34.9057301" id="Fill-1" fill="#0C3E63" mask="url(#mask-2)"></path>
                </g>
                <path d="M106.778029,90.2496863 C101.420248,90.2496863 96.6097137,89.2150288 92.3501658,87.1444671 C88.0893712,85.0751521 84.4344123,82.1519329 81.3915219,78.3785493 C78.3473849,74.6039192 76.0137959,70.0389603 74.3920014,64.6811795 C72.7652205,59.3233986 71.9537,53.3173986 71.9537,46.6606863 C71.9537,40.0064671 72.7864123,33.9792753 74.451837,28.5803575 C76.1122753,23.1826863 78.4695493,18.5965356 81.5124397,14.8219055 C84.5578233,11.0472753 88.2289877,8.14649452 92.5334123,6.11582329 C96.8316041,4.08889178 101.622193,3.07293288 106.898947,3.07293288 C112.256727,3.07293288 117.08596,4.08889178 121.387892,6.11582329 C125.689823,8.14649452 129.342289,11.0472753 132.346536,14.8219055 C135.348289,18.5965356 137.641988,23.1826863 139.225138,28.5803575 C140.808289,33.9792753 141.598618,40.0064671 141.598618,46.6606863 C141.598618,53.3173986 140.808289,59.3233986 139.225138,64.6811795 C137.641988,70.0389603 135.348289,74.6039192 132.346536,78.3785493 C129.342289,82.1519329 125.689823,85.0751521 121.387892,87.1444671 C117.08596,89.2150288 112.21559,90.2496863 106.778029,90.2496863 M106.898947,76.1259877 C109.982974,76.1259877 112.620727,75.4378781 114.813453,74.0566726 C117.004933,72.6767137 118.809974,70.7083712 120.232316,68.1503986 C121.650919,65.5936726 122.685577,62.4897 123.336289,58.8372342 C123.984508,55.1847685 124.309864,51.1271658 124.309864,46.6606863 C124.309864,42.2777274 123.984508,38.2600151 123.336289,34.6075493 C122.685577,30.953837 121.650919,27.8498644 120.232316,25.2931384 C118.809974,22.7364123 117.004933,20.7481247 114.813453,19.3270288 C112.620727,17.908426 109.982974,17.1966315 106.898947,17.1966315 C103.813673,17.1966315 101.155974,17.908426 98.9233575,19.3270288 C96.6919877,20.7481247 94.8657548,22.7364123 93.4446589,25.2931384 C92.0248096,27.8498644 90.9689603,30.9351384 90.2796041,34.5464671 C89.5890014,38.1590425 89.2449466,42.1979466 89.2449466,46.6606863 C89.2449466,51.0448918 89.5890014,55.0626041 90.2796041,58.7150699 C90.9689603,62.3675356 92.0248096,65.4715082 93.4446589,68.0294808 C94.8657548,70.5862068 96.6919877,72.5757411 98.9233575,73.9955904 C101.155974,75.4166863 103.813673,76.1259877 106.898947,76.1259877" id="Fill-4" fill="#0C3E63"></path>
                <g id="Group-8" transform="translate(168.287671, 0.496262)">
                    <mask id="mask-4" fill="white">
                        <use xlink:href="#path-3"></use>
                    </mask>
                    <g id="Clip-7"></g>
                    <path d="M0.948145205,0.749815068 L39.180611,0.749815068 C44.294063,0.749815068 48.7169123,1.46036301 52.4504055,2.88021233 C56.1838986,4.30255479 59.3502,6.31078767 61.9493096,8.90740411 C64.3838712,11.4242397 66.2911315,14.3462123 67.6698438,17.6745685 C69.0498027,21.0029247 69.7416521,24.6952808 69.7416521,28.7541301 C69.7416521,32.8927603 69.0697479,36.6474452 67.730926,40.0156918 C66.3921041,43.3839384 64.4860904,46.2685137 62.0078986,48.6619384 C59.5309534,51.055363 56.4893096,52.9227329 52.8767342,54.2628014 C49.2654055,55.6003767 45.1853644,56.2697877 40.6403507,56.2697877 L19.2117205,56.2697877 L19.2117205,87.8044041 L0.948145205,87.8044041 L0.948145205,0.749815068 Z M19.2117205,41.9042534 L37.4752959,41.9042534 C42.1025836,41.9042534 45.6116932,40.7274863 48.0063644,38.3739521 C50.399789,36.0191712 51.6002411,32.8528699 51.6002411,28.8750479 C51.6002411,24.7351712 50.3810904,21.5701164 47.9465288,19.378637 C45.5107205,17.1884041 42.1025836,16.0914178 37.7183781,16.0914178 L19.2117205,16.0914178 L19.2117205,41.9042534 Z" id="Fill-6" fill="#0C3E63" mask="url(#mask-4)"></path>
                </g>
                <mask id="mask-6" fill="white">
                    <use xlink:href="#path-5"></use>
                </mask>
                <g id="Clip-10"></g>
                <path d="M243.872521,16.1021384 L260.430781,16.1021384 L260.430781,1.24794658 L243.872521,1.24794658 L243.872521,16.1021384 Z M243.872521,88.301289 L260.430781,88.301289 L260.430781,25.8403849 L243.872521,25.8403849 L243.872521,88.301289 Z" id="Fill-9" fill="#0C3E63" mask="url(#mask-6)"></path>
                <path d="M285.755333,34.3643425 L286.121826,34.3643425 C288.229785,30.9549589 290.767812,28.3982329 293.729675,26.6929178 C296.692785,24.9888493 300.325305,24.1374384 304.627237,24.1374384 C307.874566,24.1374384 310.816484,24.7258219 313.454237,25.9013425 C316.093237,27.0806027 318.344552,28.7023973 320.213168,30.7717123 C322.079292,32.8410274 323.539032,35.2980274 324.594881,38.137726 C325.65073,40.9811644 326.179278,44.102589 326.179278,47.5144658 L326.179278,88.302411 L309.621018,88.302411 L309.621018,49.9490274 C309.621018,46.5396438 308.686086,43.7809726 306.818716,41.6680274 C304.951347,39.5600685 302.272456,38.5029726 298.784538,38.5029726 C295.130826,38.5029726 292.106634,39.8243425 289.71321,42.4608493 C287.317292,45.0986027 286.121826,48.5703151 286.121826,52.871 L286.121826,88.302411 L269.562319,88.302411 L269.562319,25.8415068 L285.755333,25.8415068 L285.755333,34.3643425 Z" id="Fill-11" fill="#0C3E63" mask="url(#mask-6)"></path>
                <path d="M364.164174,90.1278959 C358.969695,90.1278959 354.363599,89.2752384 350.345886,87.5711699 C346.328174,85.8658548 342.938736,83.5335123 340.180064,80.5704027 C337.421393,77.6072932 335.328393,74.0981836 333.90979,70.0380877 C332.488695,65.9804849 331.779393,61.6374164 331.779393,57.0101288 C331.779393,52.3840877 332.528585,48.062211 334.030708,44.0432521 C335.530338,40.0255397 337.643284,36.555074 340.360818,33.6331014 C343.080845,30.7111288 346.328174,28.3974849 350.104051,26.6934164 C353.876188,24.9881014 358.03601,24.1366904 362.58227,24.1366904 C367.617188,24.1366904 372.03879,25.0504301 375.852064,26.876663 C379.669078,28.7016493 382.872777,31.2795671 385.474379,34.6079233 C388.070996,37.937526 390.038092,41.8941562 391.375667,46.4765671 C392.716982,51.065211 393.386393,56.1574712 393.386393,61.7595808 L348.092078,61.7595808 C348.741544,66.6274575 350.385777,70.4457178 353.024777,73.204389 C355.66253,75.9643068 359.333695,77.3430192 364.044503,77.3430192 C367.290585,77.3430192 369.885955,76.653663 371.835599,75.2737041 C373.783996,73.8949918 375.203845,72.0263753 376.096393,69.6728411 L392.411571,69.6728411 C391.841886,72.4327589 390.808475,75.0518137 389.307599,77.5262658 C387.805475,80.003211 385.857078,82.1747452 383.462407,84.0396219 C381.070229,85.9082384 378.249229,87.3879233 375.000653,88.483663 C371.755818,89.5806493 368.141996,90.1278959 364.164174,90.1278959 M362.825352,36.9215671 C358.442393,36.9215671 355.114037,38.119526 352.840284,40.5117041 C350.571516,42.9076219 349.068147,46.1736493 348.3389,50.313526 L376.096393,50.313526 C375.852064,46.3381973 374.533188,43.1120603 372.139763,40.6338685 C369.747585,38.1594164 366.641119,36.9215671 362.825352,36.9215671" id="Fill-12" fill="#0C3E63" mask="url(#mask-6)"></path>
            </g>
        </g>
    </g>
</svg>