<?xml version="1.0" encoding="UTF-8"?>
<svg width="177px" height="30px" viewBox="0 0 177 30" version="1.1" xmlns="http://www.w3.org/2000/svg"
     xmlns:xlink="http://www.w3.org/1999/xlink">
    <!-- Generator: Sketch 51.3 (57544) - http://www.bohemiancoding.com/sketch -->
    <title>80 PINE - FULL</title>
    <desc>Created with Sketch.</desc>
    <defs>
        <polygon id="path-1"
                 points="0.0945357143 0.118357143 23.3959643 0.118357143 23.3959643 29.2857143 0.0945357143 29.2857143"></polygon>
        <polygon id="path-3" points="0 29.7784286 176.21 29.7784286 176.21 -0.000142857143 0 -0.000142857143"></polygon>
    </defs>
    <g id="Symbols-&amp;-Elements" stroke="none" stroke-width="1" fill="none" fill-rule="evenodd">
        <g id="80-PINE---FULL_Blue-Copy" transform="translate(-2.000000, -2.000000)">
            <g id="80-PINE---FULL" transform="translate(2.000000, 2.000000)">
                <path
                    d="M55.9568571,29.73775 C54.3815,29.73775 52.9018571,29.5473929 51.5168571,29.1673929 C50.1315,28.7873929 48.9297143,28.2306071 47.9115,27.4973929 C46.8929286,26.7638214 46.0847143,25.8613214 45.4875714,24.7884643 C44.8897143,23.7159643 44.5915,22.4731071 44.5915,21.0609643 C44.5915,19.3231071 45.0529286,17.8159643 45.9765,16.5391786 C46.899,15.2631071 48.1357857,14.3259643 49.6836429,13.7281071 L49.6836429,13.6059643 C48.434,13.0356071 47.4697143,12.3095357 46.7911429,11.4266786 C46.1118571,10.5445357 45.7725714,9.42417857 45.7725714,8.06596429 C45.7725714,6.89846429 46.0168571,5.85275 46.5061429,4.92917857 C46.9950714,4.00596429 47.6875714,3.22525 48.5836429,2.58667857 C49.4797143,1.94917857 50.5454286,1.46667857 51.7815,1.14060714 C53.0168571,0.814535714 54.3947143,0.651678571 55.9165,0.651678571 C57.4097143,0.651678571 58.7743571,0.814535714 60.0104286,1.14060714 C61.2457857,1.46667857 62.2911429,1.94203571 63.1468571,2.56632143 C64.0022143,3.19167857 64.6675714,3.95846429 65.1429286,4.86810714 C65.6179286,5.77810714 65.8561429,6.81703571 65.8561429,7.98417857 C65.8561429,9.28775 65.5161429,10.4016786 64.8375714,11.3245357 C64.1586429,12.2484643 63.2079286,12.9948929 61.9861429,13.56525 L61.9861429,13.6873929 C63.5343571,14.2313214 64.7625714,15.1270357 65.6729286,16.3759643 C66.5822143,17.6256071 67.0372143,19.10525 67.0372143,20.8166786 C67.0372143,22.2563214 66.7586429,23.5323929 66.2025714,24.6456071 C65.6450714,25.7595357 64.8711429,26.6895357 63.8804286,27.4363214 C62.8886429,28.1831071 61.7143571,28.7538214 60.3565,29.1470357 C58.9979286,29.54025 57.5315,29.73775 55.9568571,29.73775 M55.8350714,25.2570357 C57.4643571,25.2570357 58.7882857,24.8563214 59.8068571,24.05525 C60.8247143,23.2541786 61.334,22.1881071 61.334,20.8573929 C61.334,19.41775 60.8586429,18.27025 59.9086429,17.4148929 C58.9575714,16.5591786 57.6275714,16.1320357 55.9165,16.1320357 C54.2054286,16.1320357 52.8468571,16.5591786 51.8425714,17.4148929 C50.8375714,18.27025 50.3350714,19.41775 50.3350714,20.8573929 C50.3350714,22.2423929 50.8243571,23.3216786 51.8018571,24.0959643 C52.7793571,24.8698929 54.124,25.2570357 55.8350714,25.2570357 M55.8350714,12.2616786 C57.3015,12.2616786 58.4350714,11.9156071 59.2361429,11.22275 C60.0368571,10.53025 60.4379286,9.62775 60.4379286,8.51382143 C60.4379286,7.40060714 60.0368571,6.51132143 59.2361429,5.84560714 C58.4350714,5.18025 57.3015,4.84775 55.8350714,4.84775 C54.3682857,4.84775 53.2279286,5.18025 52.4125714,5.84560714 C51.5982857,6.51132143 51.1907857,7.40060714 51.1907857,8.51382143 C51.1907857,9.62775 51.5982857,10.53025 52.4125714,11.22275 C53.2279286,11.9156071 54.3682857,12.2616786 55.8350714,12.2616786"
                    id="Fill-1" fill="#0C3E63"></path>
                <g id="Group-5" transform="translate(68.571429, 0.492714)">
                    <mask id="mask-2" fill="white">
                        <use xlink:href="#path-1"></use>
                    </mask>
                    <g id="Clip-4"></g>
                    <path
                        d="M11.7456071,29.2858571 C9.95310714,29.2858571 8.34382143,28.9394286 6.91810714,28.2472857 C5.49275,27.5544286 4.27025,26.5769286 3.25203571,25.3140714 C2.23346429,24.0512143 1.45239286,22.5233571 0.909892857,20.7312143 C0.365964286,18.9383571 0.0945357143,16.9287143 0.0945357143,14.7022857 C0.0945357143,12.4758571 0.37275,10.4590714 0.929892857,8.65264286 C1.48596429,6.84692857 2.27382143,5.31228571 3.29239286,4.04978571 C4.31132143,2.78657143 5.53953571,1.8155 6.97953571,1.13657143 C8.41846429,0.458357143 10.0206071,0.118357143 11.7859643,0.118357143 C13.5788214,0.118357143 15.1941786,0.458357143 16.6338214,1.13657143 C18.0731071,1.8155 19.2948929,2.78657143 20.30025,4.04978571 C21.3045357,5.31228571 22.0720357,6.84692857 22.6016786,8.65264286 C23.1313214,10.4590714 23.3959643,12.4758571 23.3959643,14.7022857 C23.3959643,16.9287143 23.1313214,18.9383571 22.6016786,20.7312143 C22.0720357,22.5233571 21.3045357,24.0512143 20.30025,25.3140714 C19.2948929,26.5769286 18.0731071,27.5544286 16.6338214,28.2472857 C15.1941786,28.9394286 13.5648929,29.2858571 11.7456071,29.2858571 M11.7859643,24.5605 C12.81775,24.5605 13.7006071,24.3301429 14.4341786,23.868 C15.1670357,23.4065714 15.7713214,22.7472857 16.2470357,21.8922857 C16.7216786,21.0362143 17.06775,19.998 17.2856071,18.7755 C17.5023929,17.5533571 17.6116786,16.1962143 17.6116786,14.7022857 C17.6116786,13.2355 17.5023929,11.8908571 17.2856071,10.6694286 C17.06775,9.44692857 16.7216786,8.408 16.2470357,7.55264286 C15.7713214,6.69692857 15.1670357,6.03228571 14.4341786,5.55657143 C13.7006071,5.08192857 12.81775,4.84371429 11.7859643,4.84371429 C10.7534643,4.84371429 9.86453571,5.08192857 9.11775,5.55657143 C8.37096429,6.03228571 7.75989286,6.69692857 7.28453571,7.55264286 C6.80953571,8.408 6.45632143,9.4405 6.22560714,10.6483571 C5.99453571,11.8576429 5.87917857,13.2087143 5.87917857,14.7022857 C5.87917857,16.1683571 5.99453571,17.5126429 6.22560714,18.7351429 C6.45632143,19.9572857 6.80953571,20.9958571 7.28453571,21.8515714 C7.75989286,22.7065714 8.37096429,23.3722857 9.11775,23.8469286 C9.86453571,24.323 10.7534643,24.5605 11.7859643,24.5605"
                        id="Fill-3" fill="#0C3E63" mask="url(#mask-2)"></path>
                </g>
                <path
                    d="M101.21425,3.57142857e-05 L114.005679,3.57142857e-05 C115.71675,3.57142857e-05 117.196393,0.237892857 118.445679,0.712892857 C119.69425,1.18825 120.75425,1.86039286 121.623536,2.72932143 C122.438179,3.57146429 123.076036,4.54896429 123.538179,5.66253571 C123.99925,6.77610714 124.230679,8.01182143 124.230679,9.36932143 C124.230679,10.7543214 124.006036,12.01075 123.558179,13.1375357 C123.110321,14.2646786 122.472107,15.2293214 121.643893,16.0296786 C120.814964,16.8311071 119.79675,17.4553929 118.588536,17.9039643 C117.379964,18.3518214 116.014964,18.57575 114.49425,18.57575 L107.324964,18.57575 L107.324964,29.1268214 L101.21425,29.1268214 L101.21425,3.57142857e-05 Z M107.324964,13.7689643 L113.435321,13.7689643 C114.983179,13.7689643 116.157821,13.37575 116.958893,12.5875357 C117.759607,11.8003929 118.160679,10.7411071 118.160679,9.41003571 C118.160679,8.02503571 117.753179,6.96610714 116.938893,6.23289286 C116.123893,5.49932143 114.983179,5.13253571 113.51675,5.13253571 L107.324964,5.13253571 L107.324964,13.7689643 Z"
                    id="Fill-6" fill="#0C3E63"></path>
                <mask id="mask-4" fill="white">
                    <use xlink:href="#path-3"></use>
                </mask>
                <g id="Clip-9"></g>
                <path
                    d="M126.186071,4.96985714 L131.726429,4.96985714 L131.726429,-0.000142857143 L126.186071,-0.000142857143 L126.186071,4.96985714 Z M126.186071,29.1266429 L131.726429,29.1266429 L131.726429,8.22878571 L126.186071,8.22878571 L126.186071,29.1266429 Z"
                    id="Fill-8" fill="#0C3E63" mask="url(#mask-4)"></path>
                <path
                    d="M140.198786,11.0803571 L140.321286,11.0803571 C141.027357,9.93964286 141.875929,9.08428571 142.867,8.51357143 C143.858429,7.94357143 145.073786,7.65857143 146.513071,7.65857143 C147.599143,7.65857143 148.584143,7.85571429 149.466286,8.24892857 C150.349143,8.64321429 151.102357,9.18607143 151.727714,9.87857143 C152.352,10.5710714 152.840571,11.3928571 153.194143,12.3432143 C153.547,13.2939286 153.723786,14.3392857 153.723786,15.48 L153.723786,29.1267857 L148.183786,29.1267857 L148.183786,16.2946429 C148.183786,15.1539286 147.870929,14.2310714 147.246643,13.5242857 C146.621643,12.8185714 145.725214,12.4653571 144.558071,12.4653571 C143.335929,12.4653571 142.323786,12.9071429 141.523071,13.7892857 C140.721286,14.6721429 140.321286,15.8332143 140.321286,17.2721429 L140.321286,29.1267857 L134.781286,29.1267857 L134.781286,8.22857143 L140.198786,8.22857143 L140.198786,11.0803571 Z"
                    id="Fill-10" fill="#0C3E63" mask="url(#mask-4)"></path>
                <path
                    d="M166.433286,29.73775 C164.695071,29.73775 163.154,29.45275 161.810071,28.8820357 C160.465429,28.3120357 159.331143,27.5316786 158.407929,26.5398929 C157.484714,25.5488214 156.785429,24.3745357 156.310071,23.0163214 C155.835071,21.6584643 155.597571,20.2056071 155.597571,18.6573929 C155.597571,17.1095357 155.848286,15.6634643 156.351143,14.3191786 C156.852929,12.9745357 157.559357,11.8138214 158.469357,10.8359643 C159.379357,9.85846429 160.465429,9.08453571 161.728286,8.51382143 C162.990786,7.94346429 164.382214,7.65846429 165.903643,7.65846429 C167.587571,7.65846429 169.067571,7.96417857 170.344,8.57525 C171.620071,9.18596429 172.692571,10.0484643 173.562571,11.1620357 C174.4315,12.2759643 175.089714,13.5995357 175.537571,15.1334643 C175.9865,16.6681071 176.210071,18.3720357 176.210071,20.2463214 L161.056143,20.2463214 C161.273286,21.8756071 161.823286,23.1523929 162.705786,24.07525 C163.587929,24.9988214 164.816857,25.4598929 166.392929,25.4598929 C167.478643,25.4598929 168.347929,25.2298929 169.000071,24.76775 C169.651143,24.3066786 170.1265,23.6820357 170.425429,22.8941786 L175.884,22.8941786 C175.694,23.8173929 175.347571,24.6934643 174.845071,25.5216786 C174.342929,26.35025 173.690786,27.0766786 172.890429,27.7009643 C172.089,28.3259643 171.145071,28.8213214 170.059,29.18775 C168.972571,29.5545357 167.764,29.73775 166.433286,29.73775 M165.985429,11.9359643 C164.518643,11.9359643 163.404714,12.3370357 162.644714,13.1373929 C161.884357,13.9391786 161.382214,15.0316786 161.137571,16.4166786 L170.425429,16.4166786 C170.344,15.0866786 169.902214,14.0070357 169.1015,13.1781071 C168.300429,12.35025 167.261857,11.9359643 165.985429,11.9359643"
                    id="Fill-11" fill="#0C3E63" mask="url(#mask-4)"></path>
                <polygon id="Fill-12" fill="#0C3E63" mask="url(#mask-4)"
                         points="0 3.57142857e-05 0 0.00110714286 0 29.0300357 5.32571429 29.0300357 5.32571429 23.0911071 10.9403571 23.0914643 10.9407143 29.0300357 16.0435714 29.0300357 16.0435714 17.9993214 5.32571429 17.9993214 5.32571429 14.0918214 19.9578571 14.0921786 19.9592857 29.0300357 25.0614286 29.0300357 25.0614286 9.00003571 5.32571429 8.99967857 5.32571429 5.09253571 28.9757143 5.09289286 28.9767857 29.0300357 34.0789286 29.0300357 34.0789286 3.57142857e-05"></polygon>
            </g>
        </g>
    </g>
</svg>
