<?xml version="1.0" encoding="UTF-8"?>
<svg width="57px" height="25px" viewBox="0 0 57 25" version="1.1" xmlns="http://www.w3.org/2000/svg" xmlns:xlink="http://www.w3.org/1999/xlink">
    <!-- Generator: Sketch 51.3 (57544) - http://www.bohemiancoding.com/sketch -->
    <title>JLL LOGO</title>
    <desc>Created with Sketch.</desc>
    <defs>
        <polygon id="path-1" points="0 0.381333333 14.7470839 0.381333333 14.7470839 24.91645 0 24.91645"></polygon>
    </defs>
    <g id="Symbols-&amp;-Elements" stroke="none" stroke-width="1" fill="none" fill-rule="evenodd">
        <g id="JLL-Copy">
            <g id="JLL-LOGO" transform="translate(0.000000, -1.000000)">
                <path d="M27.7162209,6.56153333 C27.9713778,6.58103333 28.2232209,6.61678333 28.4728549,6.6677 C28.6705739,6.70345 28.8550379,6.78686667 29.0140967,6.9082 C29.392966,7.22453333 29.3841294,7.8182 29.3841294,8.89395 L29.3841294,16.1111167 C29.3841294,17.5801167 29.517783,19.6612 27.3969987,19.6341167 C26.4857242,19.6222 25.5523582,18.9862833 25.2629595,17.82495 L24.5328353,17.82495 C24.8410118,19.7706167 25.8980902,21.0901167 28.4596,21.0901167 L28.4717503,21.0901167 C30.6466588,21.0901167 32.588502,20.1107833 32.5851882,16.77845 L32.5851882,8.89395 C32.5851882,7.81603333 32.5785608,7.24836667 32.9563255,6.93095 C33.2015412,6.72836667 33.4014693,6.62761667 34.065319,6.56153333 L34.065319,5.9917 L27.7162209,5.9917 L27.7162209,6.56153333 Z" id="Fill-1" fill="#383838"></path>
                <path d="M44.8732556,17.8227833 C44.1331902,19.4066167 42.9943732,19.5918667 41.9505497,19.5918667 C41.1000268,19.5918667 40.5344843,19.5442 40.1335235,19.2885333 C39.8087784,19.08595 39.6883797,18.5497 39.6806477,17.6397 L39.6806477,8.89286667 C39.6806477,7.81603333 39.6729157,7.22453333 40.051785,6.9082 C40.2936869,6.70345 40.6935431,6.6287 41.3584974,6.56478333 L41.3584974,5.9917 L41.3551837,5.9917 L34.9983536,5.9917 L34.9983536,6.56153333 C35.6622033,6.62653333 35.8632359,6.72511667 36.1051379,6.92878333 C36.4088961,7.18445 36.4641248,7.59936667 36.474066,8.30895 L36.474066,9.03045 L36.474066,17.6646167 L36.474066,18.3861167 C36.4641248,19.0957 36.4088961,19.5117 36.1051379,19.7652 C35.8632359,19.9688667 35.6622033,20.0696167 34.9983536,20.13245 L34.9983536,20.7055333 L44.6004255,20.7055333 L45.6122163,17.8227833 L44.8732556,17.8227833 Z" id="Fill-3" fill="#383838"></path>
                <path d="M55.4572948,17.8227833 C54.7194386,19.4066167 53.579517,19.5918667 52.536798,19.5918667 C51.6862752,19.5918667 51.1207327,19.5442 50.7175627,19.2885333 C50.3950268,19.08595 50.2735235,18.5497 50.2657915,17.6397 L50.2657915,8.89286667 C50.2657915,7.81603333 50.2591641,7.22453333 50.6402425,6.9082 C50.8810399,6.70345 51.2808961,6.6287 51.9436412,6.56478333 L51.9436412,5.9917 L45.5879157,5.9917 L45.5879157,6.56153333 C46.2528699,6.62653333 46.452798,6.72511667 46.6958046,6.92878333 C46.9995627,7.18445 47.0536869,7.59936667 47.0647327,8.30895 L47.0647327,9.03045 L47.0647327,17.6646167 L47.0647327,18.3861167 C47.0536869,19.0957 46.9995627,19.5117 46.6958046,19.7652 C46.452798,19.9688667 46.2528699,20.0696167 45.5879157,20.13245 L45.5879157,20.7055333 L55.1899876,20.7055333 L56.202883,17.8227833 L55.4572948,17.8227833 Z" id="Fill-5" fill="#383838"></path>
                <path d="M14.2510078,24.55505 C15.384302,23.72305 16.2359294,22.5584667 16.8743739,21.3278 C17.6431582,19.8154667 18.1600993,18.1948 18.4119425,16.5253833 C18.5765242,15.4734667 18.6560536,14.4107167 18.654949,13.3458 C18.6560536,12.2819667 18.5765242,11.2192167 18.4130471,10.1651333 C18.1612039,8.49571667 17.6431582,6.87505 16.8743739,5.36488333 C16.2845307,4.23063333 15.5102235,3.15271667 14.502851,2.33913333 C14.1825242,2.6793 13.8820797,3.03896667 13.6048314,3.41488333 C13.7009294,3.54488333 13.7948183,3.67488333 13.886498,3.80488333 C15.4991778,6.15463333 16.2712758,8.9648 16.4678902,11.7641333 C16.5043412,12.2906333 16.523119,12.8182167 16.523119,13.34905 C16.523119,13.8777167 16.5043412,14.4074667 16.4678902,14.9328833 C16.2679621,17.7322167 15.4969686,20.54455 13.886498,22.8921333 C13.6876745,23.1857167 13.4667595,23.4728 13.2359033,23.7533833 C12.9730144,24.07405 12.6902431,24.3817167 12.3920078,24.67205 C12.0727856,24.9786333 11.7314719,25.2603 11.3691712,25.5159667 L11.284119,25.5788 L11.284119,25.6123833 C11.9579098,25.5874667 12.6217595,25.4303833 13.2347987,25.1487167 L13.2359033,25.1476333 C13.8478379,25.4293 14.5116876,25.5874667 15.1876876,25.6102167 L15.1876876,25.5766333 C14.7955634,25.3058 14.4255307,25.0024667 14.0820078,24.6709667 C14.1372366,24.63305 14.1957791,24.5962167 14.2510078,24.55505" id="Fill-7" fill="#383838"></path>
                <path d="M20.7808144,5.36239167 C20.1423699,4.134975 19.2918471,2.96930833 18.1574484,2.13405833 C17.3124484,1.51980833 16.2520562,1.11030833 15.1894549,1.08430833 L15.1894549,1.11789167 C16.2244418,1.824225 17.0981608,2.79380833 17.7907294,3.80455833 C19.4045137,6.15214167 20.1777163,8.96230833 20.3754353,11.7638083 C20.4118863,12.289225 20.4273503,12.8178917 20.4295595,13.3476417 C20.4295595,13.8773917 20.4118863,14.4060583 20.3754353,14.9303917 C20.1744026,17.7318917 19.4045137,20.5431417 17.7907294,22.8896417 C17.0937425,23.901475 16.2244418,24.869975 15.1894549,25.5773917 L15.1894549,25.6098917 C16.2520562,25.5838917 17.3124484,25.175475 18.1574484,24.554725 C19.2918471,23.722725 20.1434745,22.5570583 20.781919,21.3263917 C21.5495987,19.8140583 22.068749,18.194475 22.3194876,16.523975 C22.4840693,15.470975 22.5647033,14.408225 22.5613895,13.3443917 C22.5647033,12.279475 22.4829647,11.216725 22.318383,10.163725 C22.0665399,8.49430833 21.5484941,6.87364167 20.7808144,5.36239167" id="Fill-9" fill="#383838"></path>
                <path d="M8.48048627,2.02399167 C8.42525752,2.06299167 8.36561046,2.099825 8.3103817,2.13990833 C7.17708758,2.970825 6.32546013,4.137575 5.68701569,5.369325 C4.91823137,6.87949167 4.4012902,8.50015833 4.15055163,10.1706583 C3.98486536,11.222575 3.90533595,12.285325 3.90644052,13.3502417 C3.9031268,14.4151583 3.98486536,15.4779083 4.14944706,16.529825 C4.39908105,18.200325 4.91823137,19.822075 5.68701569,21.333325 C6.27685882,22.467575 7.05116601,23.5444083 8.05853856,24.359075 C8.37886536,24.0199917 8.67820523,23.6614083 8.95655817,23.2887417 C8.86046013,23.1576583 8.76657124,23.0276583 8.6748915,22.8976583 C7.06331634,20.5489917 6.29011373,17.738825 6.09349935,14.9384083 C6.05594379,14.4129917 6.03827059,13.8832417 6.03827059,13.3534917 C6.03827059,12.8259083 6.05594379,12.2939917 6.09349935,11.7707417 C6.29342745,8.970325 7.06331634,6.15799167 8.6748915,3.81149167 C8.87371503,3.51790833 9.09352549,3.230825 9.32548627,2.94915833 C9.58837516,2.62849167 9.87114641,2.32190833 10.1693817,2.03049167 C10.4897085,1.722825 10.8310222,1.43899167 11.195532,1.18224167 C11.2231464,1.160575 11.2507608,1.13890833 11.2805843,1.11940833 L11.2805843,1.11724167 C11.2982575,1.13024167 11.3159307,1.144325 11.3324993,1.15624167 C11.4385386,1.22990833 11.5445778,1.30574167 11.6495124,1.384825 C11.907983,1.58524167 12.1543033,1.797575 12.3884732,2.02399167 C12.3321399,2.06299167 12.2724928,2.099825 12.2172641,2.13990833 C11.8825778,2.39015833 11.5677739,2.66640833 11.2805843,2.967575 L11.2794797,2.96865833 C11.0662967,2.746575 10.8376497,2.538575 10.5968523,2.34249167 L10.5946431,2.33924167 C10.2754209,2.67940833 9.9738719,3.039075 9.6977281,3.416075 C9.79382614,3.546075 9.88771503,3.67715833 9.97939477,3.80715833 C10.077702,3.95124167 10.1627542,4.098575 10.2555386,4.248075 L10.2555386,4.24915833 C10.0147412,4.60990833 9.79272157,4.98040833 9.59279346,5.366075 C8.82511373,6.87624167 8.30706797,8.49799167 8.05743399,10.1674083 C7.89174771,11.219325 7.8122183,12.2831583 7.81332288,13.3469917 C7.8122183,14.4129917 7.89174771,15.473575 8.05743399,16.526575 C8.30706797,18.197075 8.82511373,19.8199083 9.59279346,21.333325 C9.68336863,21.5077417 9.77946667,21.6799917 9.87887843,21.850075 C10.2919895,21.1014917 10.6388261,20.3182417 10.9105516,19.5111583 C10.4123882,18.031325 10.1053163,16.4919083 10.0025908,14.9362417 C9.96613987,14.410825 9.95067582,13.8821583 9.94957124,13.351325 C9.94957124,12.8226583 9.96393072,12.2929083 10.0003817,11.768575 C10.1196758,9.86624167 10.5515647,7.995325 11.2783752,6.22840833 C11.5666693,5.54265833 11.9101922,4.88074167 12.3056301,4.24915833 C12.3984144,4.10074167 12.4856758,3.95015833 12.583983,3.80499167 C12.7828065,3.510325 13.0037216,3.221075 13.2334732,2.94265833 C13.4974667,2.62090833 13.7802379,2.31324167 14.0795778,2.02399167 C14.3988,1.71740833 14.7390092,1.43574167 15.1024144,1.183325 C15.1311333,1.16165833 15.1576431,1.13890833 15.1874667,1.118325 L15.1874667,1.08365833 C14.5103621,1.10749167 13.847617,1.264575 13.2334732,1.54624167 C12.8303033,1.36424167 12.4039373,1.23424167 11.9654209,1.15624167 C11.856068,1.137825 11.7566562,1.12049167 11.6495124,1.10965833 C11.5269046,1.09774167 11.4042967,1.08690833 11.2805843,1.08365833 C10.6034797,1.10749167 9.93963007,1.26349167 9.32659085,1.547325 C8.71576078,1.264575 8.04970196,1.10640833 7.37370196,1.08474167 L7.37370196,1.11724167 C7.76693072,1.38915833 8.13806797,1.69249167 8.48159085,2.02399167 L8.48048627,2.02399167 Z" id="Fill-11" fill="#383838"></path>
                <g id="Group-15" transform="translate(0.000000, 0.702325)">
                    <mask id="mask-2" fill="white">
                        <use xlink:href="#path-1"></use>
                    </mask>
                    <g id="Clip-14"></g>
                    <path d="M11.9646477,23.6522 C12.2860791,23.31095 12.5865235,22.9512833 12.8626673,22.5753667 C12.7665693,22.4453667 12.6726804,22.3142833 12.5810007,22.1842833 C12.4826935,22.0412833 12.3976412,21.8950333 12.3059614,21.7433667 C12.5456542,21.3847833 12.7676739,21.0132 12.9664974,20.6307833 C13.7341771,19.1195333 14.2522229,17.49995 14.5029614,15.82945 C14.6686477,14.77645 14.7481771,13.7137 14.7470725,12.6498667 C14.7481771,11.5838667 14.6686477,10.5211167 14.5029614,9.4692 C14.2522229,7.7987 13.7341771,6.17911667 12.9664974,4.66786667 C12.8770268,4.49345 12.7809288,4.3212 12.681517,4.15111667 C12.2684059,4.89861667 11.9226739,5.6797 11.6498438,6.48678333 C12.1480072,7.96661667 12.4517654,9.50386667 12.5544908,11.0606167 C12.5920464,11.5860333 12.6064059,12.1147 12.6064059,12.6455333 C12.6064059,13.1742 12.5942556,13.7028667 12.5567,14.2272 C12.4374059,16.1306167 12.005517,18.0015333 11.2798111,19.76845 C10.991517,20.4531167 10.6490987,21.1128667 10.2525562,21.7412 C10.1597719,21.8896167 10.0758242,22.0423667 9.97530784,22.1875333 C9.77537974,22.4811167 9.55667386,22.7682 9.32471307,23.0487833 C9.06182418,23.3705333 8.77794837,23.6771167 8.47971307,23.96745 C8.16159542,24.2740333 7.8202817,24.5567833 7.45798105,24.8113667 C7.42815752,24.8330333 7.40054314,24.8547 7.37182418,24.8752833 L7.37182418,24.8785333 C6.33573268,24.1646167 5.46090915,23.1972 4.77496797,22.1875333 C3.16339281,19.83995 2.39129477,17.0297833 2.19247124,14.2282833 C2.15712484,13.7028667 2.13834706,13.1742 2.13834706,12.64445 C2.13834706,12.1147 2.15712484,11.5860333 2.19247124,11.0617 C2.38024902,8.2602 3.15786993,5.44895 4.77496797,3.10245 C5.4631183,2.09061667 6.33794183,1.12211667 7.37292876,0.4147 L7.37292876,0.381116667 C6.30922288,0.407116667 5.24883072,0.816616667 4.40383072,1.43736667 C3.26943203,2.26936667 2.41780458,3.43503333 1.78267386,4.66245 C1.01388954,6.17261667 0.493634641,7.79436667 0.241791503,9.46378333 C0.0772098039,10.5167833 -0.00452875817,11.5795333 -0.000110457516,12.64445 C-0.00342418301,13.7082833 0.0794189542,14.7710333 0.242896078,15.8240333 C0.494739216,17.4956167 1.01388954,19.1173667 1.78267386,20.6307833 C2.4211183,21.8582 3.27385033,23.02495 4.40714444,23.8591167 C5.25324902,24.48095 6.31364118,24.89045 7.37624248,24.91645 L7.37624248,24.9077833 C8.05113791,24.88395 8.71388301,24.7268667 9.32581765,24.4462833 L9.32692222,24.4462833 C9.73009216,24.6272 10.1575627,24.7593667 10.5949745,24.8362833 C10.6999092,24.8536167 10.8048438,24.8720333 10.910883,24.8817833 C11.0334908,24.8947833 11.1583078,24.9045333 11.2798111,24.9077833 L11.2798111,24.8752833 C11.2632425,24.8622833 11.2455693,24.8482 11.2278961,24.8362833 C11.1207523,24.7626167 11.0147131,24.6867833 10.910883,24.6055333 C10.653517,24.4062 10.4071967,24.1938667 10.1730268,23.9685333 C10.2304647,23.9306167 10.2890072,23.8948667 10.3431314,23.8526167 C10.6789222,23.60345 10.991517,23.3261167 11.2798111,23.02495 C11.2798111,23.02495 11.2809157,23.0238667 11.2809157,23.0227833 C11.4940987,23.24595 11.7238503,23.45395 11.9635431,23.64895 L11.9646477,23.6522 Z" id="Fill-13" fill="#383838" mask="url(#mask-2)"></path>
                </g>
            </g>
        </g>
    </g>
</svg>