<?xml version="1.0" encoding="UTF-8"?>
<svg xmlns="http://www.w3.org/2000/svg" width="51" height="17" viewBox="0 0 51 17">
    <defs>
        <clipPath id="wg54a">
            <path d="M.09.469h47.418v15.378H.09z"/>
        </clipPath>
        <clipPath id="wg54b">
            <path d="M48.364 2.463h1.892v1.963h-1.892z"/>
        </clipPath>
    </defs>
    <g>
        <g>
            <g>
                <g>
                    <g/>
                    <g clip-path="url(#wg54a)">
                        <path fill="#383838"
                              d="M33.778 8.988c-.177.233-.35.465-.53.693a18.238 18.238 0 0 1-2.354 2.476c-.095.082-.156.075-.249.004-.38-.288-.57-.703-.637-1.177-.062-.46-.111-.926-.117-1.39-.016-1.62-.01-3.238-.014-4.856 0-.034.004-.07.009-.131l3.892 4.38zM3.723.83a3.76 3.76 0 0 1 1.055.087c.657.139 1.252.408 1.751.908.893.89 1.165 3.034-.383 4.082-.737.498-1.55.679-2.423.708zM4.21.469c-.174.012-.347.028-.522.034L.284.623l-.05.01V.88c.245.038.49.067.73.117.794.173 1.111.546 1.184 1.409.036.415.058.832.06 1.248.005 2.089.007 4.18-.002 6.269a12.33 12.33 0 0 1-.084 1.304c-.063.582-.379.963-.896 1.129-.324.104-.657.164-.988.244l-.148.029v.269h5.985v-.276c-.05-.01-.096-.013-.14-.024-.451-.11-.91-.193-1.353-.33-.501-.156-.765-.553-.815-1.107a9.743 9.743 0 0 1-.05-.845c-.006-1.053-.002-2.106-.002-3.16 0-.051.005-.103.006-.157.288.029.56.074.832.08.645.015 1.125.32 1.464.899.163.278.322.559.502.822a16.01 16.01 0 0 0 3.461 3.659l.185.148-.237.052v.239c.162 0 .315.006.467-.002a.542.542 0 0 1 .34.098 16.777 16.777 0 0 0 3.893 1.84c1.58.503 3.2.777 4.837.928 1.564.145 3.123.114 4.675-.148 2.226-.376 4.268-1.237 6.1-2.654a.302.302 0 0 1 .177-.06c.292-.005.584-.002.877-.002h.629v-.227l-.972-.304c1.117-.993 2.047-2.108 2.876-3.333.04.044.074.079.105.116 1.104 1.302 2.207 2.603 3.305 3.908.094.112.172.168.312.076v-.226c-.025-1.598-.068-3.196-.071-4.794a65.05 65.05 0 0 1 .081-3.303c.025-.503.12-1.003.219-1.497.067-.337.272-.596.575-.742a.32.32 0 0 1 .233-.011c.266.099.5.258.704.466.34.345.57.77.763 1.217.615 1.423 1.222 2.847 1.83 4.273a.377.377 0 0 1 .038.14c-.016.814-.016 1.629-.06 2.44-.037.663-.373 1.116-.975 1.325-.095.034-.192.069-.292.094-.203.05-.405.097-.607.146v.228h5.19v-.22c-.28-.074-.557-.135-.826-.22-.538-.17-.916-.515-1.022-1.133a3.723 3.723 0 0 1-.066-.561c-.016-.857-.022-1.716-.03-2.575 0-.052.011-.11.033-.156.534-1.14 1.063-2.282 1.612-3.413.18-.367.394-.718.625-1.053.406-.587.947-.971 1.625-1.111.127-.025.255-.042.38-.063v-.23H43.72c-.02.227-.02.224.17.268.131.029.264.058.39.107.416.158.594.47.493.93-.07.319-.163.645-.302.937-.467.998-.959 1.98-1.442 2.969-.033.067-.07.132-.114.217-.538-1.245-1.067-2.464-1.586-3.686a4.204 4.204 0 0 1-.225-.732c-.056-.256.045-.466.268-.577.15-.073.313-.12.474-.162.196-.052.206-.06.153-.276h-7.085v.223c.33.095.651.17.964.278.537.184.913.543 1.02 1.162.034.198.061.402.064.605.023 1.279.037 2.56.055 3.84l.026 1.878c.002.075.002.15.002.256-.047-.045-.068-.064-.087-.085l-2.38-2.695C33 5.825 31.424 4.039 29.85 2.25a.286.286 0 0 0-.24-.11c-.71.003-1.422.002-2.132.002h-.144c-.042.243-.038.232.16.296.319.1.641.199.947.336.494.224.812.62.909 1.194.036.209.064.424.064.636.006 1.588.01 3.178 0 4.767-.003.59-.038 1.18-.161 1.759-.17.797-.608 1.299-1.366 1.458-.122.026-.246.046-.368.069v.242h2.38c-.084.09-.174.155-.266.218-1.404.955-2.922 1.579-4.578 1.813a17.88 17.88 0 0 1-3.444.137 25.605 25.605 0 0 1-3.563-.443c-1.7-.328-3.347-.836-4.903-1.655-.028-.015-.054-.037-.11-.076h5.096a10.46 10.46 0 0 0 .501-3.12c-.222-.026-.218-.024-.266.177-.053.22-.106.444-.178.658-.22.66-.576 1.209-1.177 1.537-.416.228-.866.32-1.327.349-.591.036-1.18.027-1.747-.188-.495-.188-.797-.555-.858-1.12-.029-.273-.022-.552-.023-.831-.003-.823-.002-1.65-.002-2.473v-.188c.216 0 .41-.003.604.002.607.012 1.216.004 1.821.049.64.046 1.002.405 1.16 1.07.02.094.04.189.062.283h.207v-3.52h-.174c-.094.272-.154.536-.273.765-.237.459-.66.622-1.114.644-.745.035-1.495.026-2.241.035-.012 0-.026-.008-.042-.014V2.53h.146c.533 0 1.067-.011 1.601.003.36.009.723.03 1.08.084.83.125 1.314.593 1.484 1.405.038.18.056.368.083.554h.217l.176-2.427H9.926v.223c.3.072.591.132.877.214.512.149.826.5.876 1.078.033.39.063.782.064 1.172.006 1.795.004 3.587 0 5.38 0 .343-.017.685-.044 1.026-.02.26-.066.518-.225.744a10.243 10.243 0 0 1-1.63-1.375c-.665-.693-1.227-1.477-1.75-2.291-.4-.621-.79-1.248-1.186-1.874.201-.115.397-.217.583-.335.828-.52 1.398-1.238 1.496-2.3.1-1.07-.22-1.946-1.07-2.56C7.34.837 6.686.657 6.01.559c-.247-.035-.495-.061-.742-.09z"/>
                    </g>
                </g>
                <g>
                    <path fill="#383838"
                          d="M22.314 2.495c.22.014.436.018.652.045.598.074 1.169.238 1.656.635.887.725 1.038 2.254.308 3.098-.241.278-.543.457-.874.587-.557.217-1.137.279-1.742.294zm.002 5c.716-.076 1.417-.093 2.069.252.937.494 1.501 1.298 1.553 2.394.063 1.278-.74 2.147-1.884 2.276-.303.036-.607.03-.903-.061-.48-.148-.709-.52-.782-1.01a5.135 5.135 0 0 1-.058-.73c-.006-1.008-.001-2.018-.001-3.026 0-.029.003-.058.006-.095zm-3.07-5.023c.316.082.623.146.92.241.423.136.687.442.739.906.05.431.084.867.087 1.302.008 1.699.006 3.4 0 5.1 0 .338-.012.675-.035 1.012-.053.815-.33 1.157-1.083 1.355a2.529 2.529 0 0 1-.259.06c-.15.031-.302.059-.454.087v.23c.038.002.07.005.102.005l2.118.015c.383.005.766.019 1.15.013.677-.013 1.355-.01 2.03-.064a4.225 4.225 0 0 0 1.775-.549c1.208-.69 1.394-2.052 1.082-2.956-.202-.582-.616-.971-1.11-1.277-.551-.344-1.155-.545-1.773-.71l-.282-.078.03-.027.148-.044c.569-.167 1.123-.369 1.608-.737.697-.53.952-1.243.798-2.122-.136-.777-.601-1.276-1.258-1.597-.81-.397-1.677-.51-2.556-.504-1.045.006-2.092.062-3.137.098-.212.007-.426.018-.64.028z"/>
                </g>
                <g>
                    <g/>
                    <g clip-path="url(#wg54b)">
                        <path fill="#383838"
                              d="M49.312 2.64c.422 0 .752.35.752.797 0 .457-.333.805-.763.802a.74.74 0 0 1-.194-.027l.207.214c.532-.003.946-.44.942-.99-.006-.546-.42-.973-.942-.973-.53 0-.95.434-.95.982l.23.237a.913.913 0 0 1-.033-.249zm-.205 1.572a.741.741 0 0 1-.513-.53z"/>
                    </g>
                </g>
                <g>
                    <path fill="#383838"
                          d="M49.142 3.112c.078 0 .155-.013.224.004.04.01.097.065.097.097-.004.04-.052.101-.093.112-.068.018-.146.005-.228.005zm.263.326c.037-.011.058-.016.077-.025.1-.044.132-.124.124-.22-.01-.1-.07-.171-.174-.18-.137-.011-.278-.003-.417-.003v.753h.122V3.45c.097-.028.154-.003.192.076.027.055.072.102.1.158.037.081.095.102.19.072l-.214-.318z"/>
                </g>
            </g>
        </g>
    </g>
</svg>
