<?xml version="1.0" encoding="UTF-8"?>
<svg width="81px" height="24px" viewBox="0 0 81 24" version="1.1" xmlns="http://www.w3.org/2000/svg" xmlns:xlink="http://www.w3.org/1999/xlink">
    <!-- Generator: Sketch 51.3 (57544) - http://www.bohemiancoding.com/sketch -->
    <title>RUDIN LOGO</title>
    <desc>Created with Sketch.</desc>
    <defs>
        <polygon id="path-1" points="0 0.913776708 19.9230484 0.913776708 19.9230484 23.9955624 0 23.9955624"></polygon>
        <polygon id="path-3" points="0.219460248 0.663428571 15.0660783 0.663428571 15.0660783 24.0333009 0.219460248 24.0333009"></polygon>
        <polygon id="path-5" points="0.855486335 0.888297205 14.8836354 0.888297205 14.8836354 15.6242236 0.855486335 15.6242236"></polygon>
        <polygon id="path-7" points="0.796114286 0.385077019 14.8225807 0.385077019 14.8225807 15.1223255 0.796114286 15.1223255"></polygon>
    </defs>
    <g id="Symbols-&amp;-Elements" stroke="none" stroke-width="1" fill="none" fill-rule="evenodd">
        <g id="Rudin-Copy">
            <g id="RUDIN-LOGO" transform="translate(0.000000, -1.000000)">
                <polygon id="Fill-1" fill="#383838" points="57.6122814 6.20377826 62.830772 3.8084646 60.9534615 1.27613851"></polygon>
                <polygon id="Fill-2" fill="#383838" points="58.0728354 24.0820966 62.368295 24.0820966 62.368295 9.8544382 58.0728354 9.8544382"></polygon>
                <g id="Group-15" transform="translate(0.000000, 0.538795)">
                    <g id="Group-5">
                        <mask id="mask-2" fill="white">
                            <use xlink:href="#path-1"></use>
                        </mask>
                        <g id="Clip-4"></g>
                        <path d="M19.2007286,22.7348078 C18.9471354,22.7348078 18.7295981,22.7708637 18.4772068,22.7348078 C16.8510857,22.5521245 16.1263621,21.7973543 15.2249646,20.4969382 C13.6361012,18.2242146 12.1481944,15.0885531 9.73244907,13.6463171 C12.8404677,12.9264009 15.2610205,10.5082519 15.2610205,7.22716491 C15.2610205,2.9737705 12.4799087,0.913776708 8.39477516,0.913776708 L-0.000240372671,0.913776708 L-0.000240372671,23.5376525 L5.28675652,23.5376525 L5.28675652,14.1162457 C6.15450186,14.1162457 7.20252671,14.1871556 7.96090248,14.6186245 C11.5388497,16.7110686 13.1289149,23.9955624 17.8257969,23.9955624 C18.3329832,23.9955624 19.9230484,23.9246525 19.9230484,23.2071401 C19.9230484,22.8417736 19.4891758,22.7348078 19.2007286,22.7348078 M7.74576894,12.6367519 L5.2843528,12.6367519 L5.2843528,2.35961832 L7.67005155,2.35961832 C10.9583497,2.35961832 13.1613652,3.3703854 13.1613652,7.00842578 C13.1661727,10.1837488 10.9968093,12.6367519 7.74576894,12.6367519" id="Fill-3" fill="#383838" mask="url(#mask-2)"></path>
                    </g>
                    <g id="Group-8" transform="translate(38.459627, 0.000000)">
                        <mask id="mask-4" fill="white">
                            <use xlink:href="#path-3"></use>
                        </mask>
                        <g id="Clip-7"></g>
                        <path d="M10.7694168,10.5183475 C9.45097267,9.70708975 7.90898199,9.22754627 6.35857826,9.22754627 C2.47295404,9.22754627 0.435795652,12.2093693 0.236286335,16.0060556 L0.236286335,16.0409096 C0.225469565,16.2356115 0.219460248,16.4315152 0.219460248,16.6310245 C0.219460248,16.8305339 0.225469565,17.0264376 0.236286335,17.2211394 L0.236286335,17.2571953 C0.435795652,21.0526798 2.47295404,24.0333009 6.35857826,24.0333009 C7.90898199,24.0333009 9.44856894,23.5549593 10.7694168,22.7437016 L10.7694168,23.5417388 L15.0660783,23.5417388 L15.0660783,0.663068012 L10.7694168,0.663068012 L10.7694168,10.5183475 Z M10.7694168,21.4180463 C9.51587329,22.3194438 7.97027702,22.8819158 6.35857826,22.8819158 C5.72038882,22.889127 5.08580497,22.7893724 4.47886398,22.589863 L4.47886398,10.6709842 C5.08580497,10.4714748 5.72038882,10.372922 6.35857826,10.3789314 C7.97027702,10.3789314 9.51587329,10.9414034 10.7694168,11.8452047 L10.7694168,21.4180463 Z" id="Fill-6" fill="#383838" mask="url(#mask-4)"></path>
                    </g>
                    <g id="Group-11" transform="translate(20.431677, 8.413043)">
                        <mask id="mask-6" fill="white">
                            <use xlink:href="#path-5"></use>
                        </mask>
                        <g id="Clip-10"></g>
                        <path d="M10.585772,12.6280984 C9.69759503,13.6412693 8.04863851,14.4188748 6.73860745,14.4188748 C5.68337143,14.4188748 5.22906708,13.9417351 5.15695528,13.2530674 L5.15214783,13.2530674 L5.15214783,0.888297205 L0.855486335,0.888297205 L0.855486335,10.354173 C0.855486335,12.0043314 1.5093,13.4597879 2.6474646,14.3143127 C3.57410124,15.1315798 4.66899876,15.6243438 6.49943665,15.6243438 C7.74937453,15.6243438 9.47645217,14.9513003 10.585772,14.2722475 L10.585772,15.1183593 L14.8836354,15.1183593 L14.8836354,0.890700932 L10.585772,0.890700932 L10.585772,12.6280984 Z" id="Fill-9" fill="#383838" mask="url(#mask-6)"></path>
                    </g>
                    <g id="Group-14" transform="translate(66.102484, 8.413043)">
                        <mask id="mask-8" fill="white">
                            <use xlink:href="#path-7"></use>
                        </mask>
                        <g id="Clip-13"></g>
                        <path d="M13.0322851,1.69510807 C12.1044466,0.877840994 11.0095491,0.385077019 9.17790932,0.385077019 C7.92676957,0.385077019 6.20449938,1.05932236 5.09277578,1.73837516 L5.09277578,0.891061491 L0.796114286,0.891061491 L0.796114286,15.1187199 L5.09277578,15.1187199 L5.09277578,3.38252422 C5.97975093,2.36815155 7.62990932,1.59415155 8.93873851,1.59415155 C9.99397453,1.59415155 10.4482789,2.06768571 10.5215925,2.75635342 L10.5276019,2.75635342 L10.5276019,15.1223255 L14.8230615,15.1223255 L14.8230615,5.65524783 C14.8230615,4.00508944 14.1704497,2.55083478 13.0322851,1.69510807" id="Fill-12" fill="#383838" mask="url(#mask-8)"></path>
                    </g>
                </g>
            </g>
        </g>
    </g>
</svg>