<?xml version="1.0" encoding="UTF-8"?>
<svg xmlns="http://www.w3.org/2000/svg" width="26" height="30" viewBox="0 0 26 30">
    <defs>
        <clipPath id="erhra">
            <path d="M.413 7.04H23.74v21.622H.413z"/>
        </clipPath>
    </defs>
    <g>
        <g>
            <g>
                <g>
                    <g>
                        <g/>
                        <g clip-path="url(#erhra)">
                            <path fill="#383838"
                                  d="M6.493 7.054c0 .388.001.76-.004 1.13 0 .032-.028.07-.057.09-.46.341-.943.654-1.376 1.024-.88.75-1.602 1.636-2.18 2.631a9.84 9.84 0 0 0-1.073 2.6c-.11.45-.2.907-.25 1.367a12.289 12.289 0 0 0-.082 1.58c.012.82.143 1.63.366 2.423.191.681.44 1.34.767 1.97.35.674.767 1.306 1.25 1.896.43.52.905.997 1.425 1.423a10.516 10.516 0 0 0 2.555 1.56c.604.258 1.22.476 1.864.608.407.082.817.151 1.23.2.372.043.75.08 1.123.072.499-.01.996-.046 1.492-.104.7-.084 1.38-.258 2.047-.49a10.525 10.525 0 0 0 2.67-1.378 10.29 10.29 0 0 0 1.767-1.574 10.593 10.593 0 0 0 1.85-2.921c.28-.66.486-1.343.626-2.042.07-.348.106-.704.14-1.057a8.98 8.98 0 0 0 .051-.993 11.194 11.194 0 0 0-.153-1.662 10.212 10.212 0 0 0-1.23-3.422c-.353-.62-.77-1.19-1.245-1.726a10.8 10.8 0 0 0-2.32-1.967c-.046-.032-.098-.099-.098-.15-.01-.346-.006-.692-.006-1.038 0-.016.01-.03.022-.064 1.494.81 2.75 1.879 3.757 3.221 1.646 2.19 2.433 4.664 2.306 7.388-.15 3.158-1.427 5.832-3.774 7.98-1.783 1.634-3.904 2.62-6.32 2.928-3.026.385-5.809-.28-8.299-2.026-2.347-1.649-3.902-3.87-4.58-6.637C-.64 14.19 2.43 9.18 6.493 7.054"/>
                        </g>
                    </g>
                    <g>
                        <path fill="#383838"
                              d="M16.655 10.14c.08.023.075.083.075.149v4.099h.931c0 .152.004.294-.004.436 0 .023-.045.057-.076.065-.046.011-.097.005-.146.005-3.602 0-7.202-.001-10.803.002-.12 0-.159-.034-.151-.15.01-.11.003-.226.003-.348h.93v-6.3l.515-.188c-.04.185.059.362-.052.494.016.047.043.09.043.133.004.533.001 1.063.001 1.594v3.606c.01.004.022.007.034.01.112-.215.23-.428.335-.647.34-.706.622-1.432.803-2.192.132-.558.232-1.123.345-1.684.01-.06.009-.122.03-.18.013-.034.048-.08.083-.09.176-.057.356-.105.534-.157.074.184.042.513-.03.547.02.051.057.096.057.142.004 1.116.004 2.232.005 3.348 0 .307 0 .616.028.934.135-.261.282-.519.406-.785.389-.834.678-1.702.881-2.598.052-.23.089-.464.137-.693.008-.04.039-.094.069-.102.218-.053.44-.095.673-.144 0 .182.007.353-.004.523-.003.032-.061.076-.1.086-.134.037-.27.06-.401.11l.497-.086v3.689l.043.01c.138-.266.298-.524.41-.801.229-.56.431-1.132.646-1.7.014-.034.047-.083.076-.086.274-.034.55-.074.823-.078.213-.003.427.045.638.07.053.005.105 0 .15 0a3.064 3.064 0 0 0-1.652.002c.055-.23.1-.425.154-.62a.106.106 0 0 1 .071-.06c.328-.068.653-.118.993-.048.366.078.74.12 1.11.177.026.003.052 0 .08-.015-.438-.083-.878-.15-1.31-.25-.31-.07-.592.042-.907.073.041-.203.08-.4.125-.595.006-.022.05-.045.08-.053.13-.029.261-.071.395-.074.128-.005.26.029.388.054.514.09 1.027.186 1.54.281l.503.089z"/>
                    </g>
                    <g>
                        <path fill="#383838"
                              d="M17.674 9.215a9.615 9.615 0 0 1 2.479 2.463c1.27 1.833 1.833 3.873 1.693 6.08-.142 2.234-.991 4.199-2.514 5.856-1.506 1.64-3.374 2.678-5.588 3.04-5.004.82-9.278-2.08-10.815-6.106-1.602-4.199-.075-8.827 3.566-11.333 0 .22.001.427-.003.632 0 .021-.037.044-.062.062a9.39 9.39 0 0 0-2.003 2.107 8.96 8.96 0 0 0-1.377 3.15 9.848 9.848 0 0 0-.168 1.116c-.036.337-.06.68-.05 1.019a9.06 9.06 0 0 0 1.943 5.428 9.261 9.261 0 0 0 1.44 1.457 9.271 9.271 0 0 0 2.315 1.382 9.49 9.49 0 0 0 1.986.566c.693.124 1.389.16 2.085.121a9.161 9.161 0 0 0 3.85-1.074 9.254 9.254 0 0 0 1.737-1.197 9.418 9.418 0 0 0 1.735-2.013 9.046 9.046 0 0 0 1.115-2.55c.132-.5.236-1.005.253-1.524.016-.458.049-.918.021-1.375a8.652 8.652 0 0 0-.447-2.251 8.946 8.946 0 0 0-1.516-2.78 8.432 8.432 0 0 0-1.554-1.526c-.098-.074-.171-.154-.152-.296.019-.132.005-.27.005-.405 0-.009.008-.015.026-.049"/>
                    </g>
                    <g>
                        <path fill="#383838"
                              d="M6.513 21.083c0-.141.004-.268 0-.393-.003-.075.03-.105.102-.104.054.002.105.002.16.002 3.59 0 7.18 0 10.773-.003.118 0 .156.037.148.15-.008.113-.002.225-.002.348z"/>
                    </g>
                    <g>
                        <path fill="#383838"
                              d="M16.67 10.145c-.179-.047-.355-.099-.534-.137a79.39 79.39 0 0 0-1.788-.373c-.11-.02-.23.02-.344.036-.068.01-.134.03-.218.049.02-.145.037-.28.058-.415.011-.063.018-.174.053-.183.148-.045.312-.108.456-.08.713.137 1.42.297 2.129.455.26.058.259.065.259.326 0 .079.007.16-.003.236-.005.03-.048.056-.072.083z"/>
                    </g>
                    <g>
                        <path fill="#383838"
                              d="M13.899 8.99c.018-.182.031-.34.05-.5.004-.028.027-.076.047-.08.134-.022.28-.069.405-.042.743.168 1.48.355 2.219.536.038.01.075.021.117.034v.556c-.186-.04-.362-.079-.538-.122-.62-.154-1.237-.314-1.86-.455-.1-.025-.22.03-.33.047l-.11.026"/>
                    </g>
                    <g>
                        <path fill="#383838"
                              d="M16.736 8.855l-1.59-.434c-.263-.073-.524-.15-.788-.218-.055-.015-.12 0-.182.01-.063.01-.125.027-.18.04 0-.172-.001-.335.001-.497 0-.017.03-.044.05-.05.118-.034.23-.073.365-.036.744.214 1.489.415 2.235.626.035.012.082.063.085.099.009.147.004.296.004.46"/>
                    </g>
                    <g>
                        <path fill="#383838"
                              d="M16.727 7.69v.502c-.075-.018-.141-.03-.206-.052-.71-.214-1.422-.425-2.129-.652-.137-.043-.241.02-.38.037 0-.155-.003-.3.002-.448.003-.077.21-.152.322-.119.794.244 1.586.485 2.39.731"/>
                    </g>
                    <g>
                        <path fill="#383838"
                              d="M14.03 6.8c0-.122-.005-.263 0-.401.006-.086.223-.153.349-.112l1.05.352c.408.138.816.276 1.221.415.037.013.089.046.09.073.01.142.004.283.004.444-.32-.106-.621-.205-.921-.307-.478-.162-.953-.332-1.435-.48-.104-.033-.23.009-.359.016"/>
                    </g>
                    <g>
                        <path fill="#383838"
                              d="M16.738 6.467v.462c-.24-.087-.467-.171-.692-.254-.559-.205-1.117-.415-1.68-.606-.095-.033-.216.015-.336.026 0-.116-.006-.247.002-.375.005-.093.215-.166.337-.122.303.11.606.223.907.335.485.176.971.353 1.462.534"/>
                    </g>
                    <g>
                        <path fill="#383838"
                              d="M14.028 5.415v-.228c0-.256.145-.351.39-.255.743.295 1.483.593 2.23.885.074.029.102.063.097.14-.007.104 0 .207 0 .33-.17-.064-.32-.117-.466-.176-.64-.253-1.282-.509-1.924-.76a.276.276 0 0 0-.148 0c-.054.011-.106.037-.18.064"/>
                    </g>
                    <g>
                        <path fill="#383838"
                              d="M14.029 4.69c0-.112-.003-.22.001-.33.006-.097.219-.188.329-.143l1.43.609c.28.12.556.25.838.36.099.04.126.09.118.186-.007.085-.002.172-.002.274-.307-.13-.6-.25-.89-.374-.496-.213-.994-.424-1.486-.643-.129-.058-.208.06-.338.061"/>
                    </g>
                    <g>
                        <path fill="#383838"
                              d="M14.028 4.013v-.195c0-.277.155-.371.411-.253.724.333 1.446.667 2.174.994.105.046.148.1.131.212-.01.065-.002.13-.002.224-.152-.064-.289-.12-.424-.182-.59-.267-1.18-.537-1.77-.807a.066.066 0 0 1-.022-.013c-.156-.107-.314-.138-.498.02"/>
                    </g>
                    <g>
                        <path fill="#383838"
                              d="M7.432 7.014c-.004-.014-.005-.027-.007-.04-.047-.239.05-.362.28-.464.804-.348 1.595-.724 2.39-1.09.097.136.058.36-.078.422L7.457 7.02c-.004.002-.009-.001-.025-.007"/>
                    </g>
                    <g>
                        <path fill="#383838"
                              d="M16.746 4.36c-.406-.2-.79-.39-1.175-.578-.405-.198-.81-.394-1.216-.587-.042-.019-.1-.012-.146 0-.056.016-.106.05-.18.086 0-.113-.004-.208.003-.303.005-.09.233-.186.323-.142l1.825.889c.152.073.3.158.455.224.088.037.123.082.112.175-.008.068-.001.139-.001.237"/>
                    </g>
                    <g>
                        <path fill="#383838"
                              d="M16.73 3.711c-.051-.017-.09-.027-.124-.043-.736-.385-1.476-.77-2.211-1.16-.085-.044-.153-.054-.232.001-.04.027-.084.043-.149.072 0-.102-.006-.19 0-.273.01-.105.25-.198.358-.14l1.248.654c.324.17.647.345.977.504.107.052.154.11.135.225-.008.045-.001.094-.001.16"/>
                    </g>
                    <g>
                        <path fill="#383838"
                              d="M16.744 3.083c-.367-.201-.71-.388-1.052-.579-.418-.23-.837-.46-1.253-.695-.114-.064-.212-.082-.314.015-.02.018-.051.025-.095.044 0-.093-.006-.168.001-.246.01-.106.238-.202.345-.145.241.13.48.263.72.397.515.283 1.026.57 1.543.848.085.047.115.094.106.183-.006.05-.001.102-.001.178"/>
                    </g>
                    <g>
                        <path fill="#383838"
                              d="M12.307 2.525c.085.227-.032.323-.21.419-.732.392-1.456.8-2.181 1.201-.087.05-.175.092-.28.148 0-.091-.006-.16.004-.228.005-.035.028-.08.056-.098.497-.28.996-.553 1.494-.829.338-.188.674-.378 1.015-.564.033-.02.07-.035.102-.049"/>
                    </g>
                    <g>
                        <path fill="#383838"
                              d="M16.733 2.419c-.184-.105-.356-.198-.525-.296l-1.611-.936c-.016-.01-.032-.017-.047-.025-.254-.153-.254-.153-.498-.028-.063-.203-.005-.32.198-.376.035-.01.086.005.12.024l1.297.75.915.53c.183.109.182.11.15.357"/>
                    </g>
                    <g>
                        <path fill="#383838"
                              d="M16.71 1.772L14.86.65c-.148-.091-.295-.183-.441-.277-.096-.061-.185-.094-.28.003-.023.024-.06.031-.128.066.015-.1-.003-.2.04-.253.093-.118.228-.134.329-.073.764.464 1.53.926 2.29 1.398.057.038.06.16.088.242z"/>
                    </g>
                    <g>
                        <path fill="#383838"
                              d="M11.598 9.547c.027-.189.05-.345.077-.501.005-.036.035-.088.063-.093.184-.052.37-.094.572-.143 0 .18.003.347 0 .516 0 .02-.023.053-.04.058-.218.054-.438.106-.672.163"/>
                    </g>
                    <g>
                        <path fill="#383838"
                              d="M11.755 8.334l.557-.154c0 .17 0 .332-.003.492 0 .02-.02.056-.037.06-.185.053-.369.1-.578.154.022-.194.042-.37.061-.552"/>
                    </g>
                    <g>
                        <path fill="#383838"
                              d="M9.49 8.93c.022-.18.042-.34.066-.502.004-.018.033-.04.054-.046.16-.052.323-.099.51-.157 0 .17.003.323-.004.477 0 .023-.044.053-.074.063-.172.055-.347.105-.553.164"/>
                    </g>
                    <g>
                        <path fill="#383838"
                              d="M12.323 7.55c0 .164.001.31-.001.458 0 .022-.015.06-.031.063-.17.058-.34.107-.5.154v-.393c-.001-.078.023-.127.111-.148.137-.034.27-.085.421-.134"/>
                    </g>
                    <g>
                        <path fill="#383838"
                              d="M9.572 8.327c0-.158-.007-.287.004-.415.003-.034.047-.082.082-.096.144-.056.291-.103.46-.161 0 .158.002.3-.001.441-.002.02-.022.053-.039.06-.17.06-.341.116-.506.17"/>
                    </g>
                    <g>
                        <path fill="#383838"
                              d="M11.81 7.571c0-.152-.008-.28.003-.404a.154.154 0 0 1 .081-.107c.132-.052.27-.091.42-.14 0 .151.002.293-.001.435-.002.023-.019.058-.037.065-.147.052-.298.096-.467.151"/>
                    </g>
                    <g>
                        <path fill="#383838"
                              d="M10.12 7.1c0 .153.005.287-.003.419-.001.027-.046.06-.079.072-.135.056-.273.105-.435.165 0-.152-.004-.287.004-.422 0-.024.048-.056.079-.068.132-.054.266-.101.434-.166"/>
                    </g>
                    <g>
                        <path fill="#383838"
                              d="M12.314 6.29a.09.09 0 0 1 .008.03c.027.45.027.45-.498.606 0-.148-.004-.288.003-.428 0-.018.042-.04.067-.05.136-.053.275-.103.42-.158"/>
                    </g>
                    <g>
                        <path fill="#383838"
                              d="M12.306 5.66v.435l-.498.195c0-.146-.005-.265.005-.386.002-.03.041-.069.072-.082.136-.057.274-.106.42-.162"/>
                    </g>
                    <g>
                        <path fill="#383838"
                              d="M7.923 7.415c0 .138.004.253-.002.366-.001.03-.017.076-.04.086-.147.063-.297.118-.467.18 0-.142-.003-.263.004-.384 0-.026.034-.06.062-.07.139-.059.28-.113.443-.178"/>
                    </g>
                    <g>
                        <path fill="#383838"
                              d="M10.122 6.545c0 .146.005.273-.003.395-.001.026-.047.058-.08.072-.127.054-.256.105-.404.165 0-.144-.002-.277.001-.41 0-.014.023-.037.04-.044.138-.057.279-.112.446-.178"/>
                    </g>
                    <g>
                        <path fill="#383838"
                              d="M12.318 5.439l-.495.213.001-.388c.003-.016.026-.038.042-.046.147-.063.295-.124.452-.188z"/>
                    </g>
                    <g>
                        <path fill="#383838"
                              d="M7.416 7.545c0-.135-.007-.247.003-.359.004-.032.044-.072.078-.089.129-.06.262-.111.421-.177 0 .135.001.259-.001.382 0 .015-.027.033-.045.042-.145.066-.29.129-.456.201"/>
                    </g>
                    <g>
                        <path fill="#383838"
                              d="M10.132 5.975c0 .134.005.241-.003.35a.134.134 0 0 1-.068.092c-.132.063-.27.115-.424.18 0-.124-.007-.237.002-.346.002-.033.041-.075.072-.089.13-.063.26-.117.421-.187"/>
                    </g>
                    <g>
                        <path fill="#383838"
                              d="M12.31 4.4v.386l-.502.227c0-.126-.004-.221.004-.317a.119.119 0 0 1 .058-.09c.138-.07.282-.131.44-.206"/>
                    </g>
                    <g>
                        <path fill="#383838"
                              d="M12.301 3.77c.007.016.01.02.01.024.048.23-.013.4-.267.464-.074.02-.14.063-.236.108 0-.119-.005-.214.006-.306.002-.033.048-.067.083-.087.13-.069.263-.132.404-.203"/>
                    </g>
                    <g>
                        <path fill="#383838"
                              d="M9.635 5.445c0-.115-.002-.21.001-.303 0-.024.014-.059.031-.068.143-.073.286-.14.431-.209.082.244.047.332-.153.43l-.31.15"/>
                    </g>
                    <g>
                        <path fill="#383838"
                              d="M11.843 3.72c-.071-.232-.043-.304.137-.403l.326-.177c.007.026.012.037.013.047.038.203-.02.345-.241.402-.08.023-.152.082-.235.13"/>
                    </g>
                    <g>
                        <path fill="#383838"
                              d="M9.637 4.877c0-.11-.007-.197.003-.28.003-.03.037-.065.067-.08.128-.074.26-.138.393-.207.085.198.042.31-.145.403l-.318.164"/>
                    </g>
                    <g>
                        <path fill="#383838"
                              d="M12.305 1.895c.032.256.031.26-.17.372-.096.053-.189.108-.283.161-.08-.128-.053-.239.068-.308l.385-.225"/>
                    </g>
                    <g>
                        <path fill="#383838"
                              d="M11.828 1.79c-.046-.158-.02-.255.124-.32.12-.052.227-.135.346-.205.048.162.005.26-.14.327-.11.052-.21.125-.33.198"/>
                    </g>
                </g>
                <g>
                    <path fill="#383838"
                          d="M6.721 15.671h.608l.363 1.187.4-1.193h.497l.402 1.193.362-1.187h.595l-.693 2.067h-.502l-.42-1.18-.414 1.18h-.503z"/>
                </g>
                <g>
                    <path fill="#383838" d="M10.294 17.716h.58v-2.051h-.58z"/>
                </g>
                <g>
                    <path fill="#383838"
                          d="M11.948 16.65v-.494h.377c.192 0 .312.082.312.243v.007c0 .15-.113.243-.308.243zm-.576 1.067h.576v-.622h.253l.417.622h.666L12.789 17c.257-.107.427-.315.427-.63v-.004a.63.63 0 0 0-.185-.48c-.138-.14-.359-.221-.677-.221h-.982z"/>
                </g>
                <g>
                    <path fill="#383838" d="M13.625 15.665h1.672v.484h-1.103v.31h1v.45h-1v.325h1.118v.483h-1.687z"/>
                </g>
                <g>
                    <g>
                        <path fill="#383838"
                              d="M16.31 17.213v-1.044h.234c.345 0 .573.19.573.518v.008c0 .33-.228.518-.573.518zm-.576.504h.79c.748 0 1.185-.44 1.185-1.032v-.005c0-.593-.43-1.015-1.173-1.015h-.802z"/>
                    </g>
                    <g>
                        <path fill="#383838"
                              d="M8.026 22.733v-.289h.144c.11 0 .176.05.176.144v.003c0 .086-.066.142-.175.142zm-.307.55h.307v-.313h.152c.273 0 .475-.135.475-.394v-.003c0-.241-.18-.383-.46-.383H7.72z"/>
                    </g>
                </g>
                <g>
                    <path fill="#383838" d="M8.83 22.19v1.093h.841v-.267h-.536v-.826z"/>
                </g>
                <g>
                    <path fill="#383838"
                          d="M10.27 22.843l.124-.31.124.31zm-.49.431h.321l.08-.196h.426l.081.196h.328l-.471-1.099h-.296z"/>
                </g>
                <g>
                    <path fill="#383838" d="M10.97 22.19v.266h.331v.825h.307v-.825h.331v-.266z"/>
                </g>
                <g>
                    <path fill="#383838" d="M12.145 23.281h.308V22.19h-.308z"/>
                </g>
                <g>
                    <path fill="#383838" d="M13.448 22.19v.578l-.455-.578h-.285v1.093h.304v-.6l.47.6h.27V22.19z"/>
                </g>
                <g>
                    <path fill="#383838"
                          d="M13.996 22.802v-.612h.311v.606c0 .158.08.231.204.231.123 0 .204-.07.204-.223v-.614h.31v.605c0 .352-.204.507-.517.507-.315 0-.512-.158-.512-.5"/>
                </g>
                <g>
                    <path fill="#383838"
                          d="M15.25 22.19h.324l.264.422.265-.422h.323v1.093h-.304v-.629l-.284.428h-.007l-.28-.425v.626h-.3z"/>
                </g>
                <g>
                    <path fill="#383838"
                          d="M7.899 19.48c-.14.136-.263.192-.426.192-.29 0-.517-.24-.517-.55 0-.309.222-.541.515-.541.201 0 .323.09.416.18l.031.029.129-.132-.032-.027a.746.746 0 0 0-.542-.221.704.704 0 0 0-.703.716v.003c0 .407.302.713.7.713.27 0 .432-.12.553-.239l.03-.03-.126-.121z"/>
                </g>
                <g>
                    <path fill="#383838" d="M8.299 18.44v1.388H9.33v-.173h-.85v-.442h.756v-.173H8.48v-.43h.842v-.17z"/>
                </g>
                <g>
                    <path fill="#383838"
                          d="M9.816 18.597h.415c.214 0 .342.093.342.251 0 .16-.137.26-.349.26h-.408zm.815-.03a.555.555 0 0 0-.401-.142h-.596v1.387h.182v-.54h.37l.42.54h.23l-.446-.57c.223-.052.354-.198.354-.405a.376.376 0 0 0-.113-.27z"/>
                </g>
                <g>
                    <path fill="#383838" d="M10.97 18.425v.172h.46v1.216h.183v-1.216h.46v-.172z"/>
                </g>
                <g>
                    <path fill="#383838" d="M12.37 19.813h.182v-1.388h-.182z"/>
                </g>
                <g>
                    <path fill="#383838" d="M12.95 18.44v1.387h.181v-.592h.748v-.172h-.748v-.451h.834v-.172z"/>
                </g>
                <g>
                    <path fill="#383838" d="M14.27 19.813h.18v-1.388h-.18z"/>
                </g>
                <g>
                    <path fill="#383838"
                          d="M14.849 18.44v1.388h1.032v-.173h-.85v-.442h.756v-.173h-.757v-.43h.842v-.17z"/>
                </g>
                <g>
                    <path fill="#383838"
                          d="M16.686 19.67h-.304V18.61h.304c.08 0 .152.012.218.035l-.222-.206H16.2v1.387h.482c.431 0 .744-.291.744-.698l-.214-.198c.026.064.04.135.04.212zm.218-1.024c.145.05.253.15.308.285z"/>
                </g>
            </g>
        </g>
    </g>
</svg>
